<svg width="300" height="73" viewBox="0 0 300 73" fill="none" xmlns="http://www.w3.org/2000/svg">
<path d="M0 0H72.5884V72.5884H0V0Z" fill="#2A65AC"/>
<path d="M50.1858 20.5725C50.135 20.4265 50.0557 20.2919 49.9525 20.1767C49.8492 20.0615 49.7242 19.968 49.5845 19.9015C49.2752 19.7534 48.9222 19.7534 48.6085 19.8885C48.5998 19.8885 48.5959 19.8928 48.5867 19.8972C48.5824 19.8972 48.5737 19.8972 48.5693 19.9015C48.5475 19.9103 48.5301 19.932 48.5083 19.9451C48.4909 19.9625 48.4691 19.9669 48.4517 19.9843L44.4339 24.0016L41.275 20.847L45.2927 16.8297C45.2927 16.8254 45.2927 16.821 45.2971 16.821C45.3276 16.7862 45.3581 16.7469 45.3794 16.7034C45.3794 16.699 45.3794 16.6947 45.3842 16.6903C45.3842 16.6859 45.3886 16.6772 45.3886 16.6729C45.5106 16.394 45.5193 16.0847 45.4147 15.8014C45.3101 15.5052 45.0923 15.2699 44.8047 15.1348C44.4997 14.9954 44.1511 14.991 43.8418 15.1261C43.837 15.1261 43.8287 15.1261 43.8243 15.1304C43.8196 15.1348 43.8152 15.1348 43.8113 15.1348C43.7851 15.1479 43.7677 15.1653 43.7503 15.1827C43.7285 15.1958 43.7023 15.2045 43.6849 15.2219L39.6676 19.2392L37.9857 17.553H37.9814C37.628 17.2001 37.0185 17.2001 36.6651 17.553L34.9876 19.2305C34.8046 19.4135 34.7131 19.6532 34.7131 19.8928C34.7131 20.1325 34.8046 20.3721 34.9876 20.5508L35.7849 21.3481C35.4538 21.2348 35.0747 21.3045 34.8133 21.566L31.3232 25.0561C31.2361 25.1476 31.1968 25.2652 31.2012 25.3829C31.1141 25.4613 31.0531 25.5702 31.0531 25.7009C31.0226 27.4874 31.589 29.2302 32.6434 30.6681C30.5337 32.2259 28.8226 34.261 27.6501 36.6069C27.6501 36.6117 27.6458 36.6117 27.6458 36.6117V36.6161C26.5881 38.6642 26.2097 40.9958 26.5652 43.2734C26.5652 43.2782 26.5695 43.2782 26.5695 43.2825V43.2956C26.8048 44.415 27.136 45.5265 27.5586 46.5896V46.594C27.7983 47.2175 28.0161 47.8619 28.2078 48.5072C28.3865 49.0954 28.4998 49.7054 28.5433 50.3198C28.552 50.4196 28.552 50.5154 28.552 50.6117C28.552 51.7097 28.1294 52.7729 27.3669 53.5702C26.14 54.7248 24.5066 55.348 22.8224 55.3039C22.6394 55.3039 22.4825 55.4085 22.4128 55.561C22.391 55.6133 22.3736 55.6699 22.3736 55.7266L22.3344 57.1078C22.3324 57.1651 22.3418 57.2222 22.362 57.2758C22.3822 57.3295 22.4129 57.3786 22.4522 57.4203C22.4914 57.462 22.5386 57.4956 22.5909 57.5189C22.6433 57.5423 22.6997 57.5551 22.757 57.5566C22.8354 57.561 22.9182 57.561 22.9967 57.561C25.197 57.561 27.3538 56.6987 28.9485 55.1776C28.9529 55.1732 28.9529 55.1732 28.9529 55.1689C28.9573 55.1689 28.9573 55.1689 28.9616 55.1641C30.2557 53.8351 30.9223 52.0099 30.7916 50.1625V50.1581C30.7393 49.3782 30.5956 48.6026 30.3646 47.8576C30.1555 47.1604 29.9202 46.4633 29.6631 45.7835V45.7787C29.2879 44.8402 28.9948 43.8709 28.7873 42.8817C28.5023 41.0867 28.8065 39.2476 29.6544 37.64V37.6356C29.6544 37.6356 29.6544 37.6313 29.6588 37.6313C30.7132 35.505 32.2948 33.6663 34.2338 32.2981C35.6623 33.4032 37.4167 34.0039 39.2227 34.0061H39.3582C39.6008 34.0028 39.8322 33.9042 40.0027 33.7316L43.4928 30.2415C43.7546 29.9801 43.8243 29.601 43.7106 29.2742L44.7258 30.2895C44.9088 30.4725 45.1489 30.564 45.3886 30.564C45.6239 30.564 45.8635 30.4725 46.0465 30.2938V30.2895L47.7244 28.6163C47.8983 28.4377 47.9989 28.2024 47.9989 27.954C47.9989 27.7057 47.8987 27.4704 47.7244 27.2961V27.2917L46.0382 25.6099L50.0555 21.5926C50.0555 21.5882 50.0599 21.5882 50.0599 21.5838C50.0904 21.5533 50.1213 21.5141 50.1427 21.4706C50.1427 21.4662 50.1427 21.4618 50.147 21.4531C50.1514 21.4488 50.1514 21.4444 50.1514 21.4357C50.2755 21.1636 50.2878 20.8537 50.1858 20.5725Z" fill="white"/>
<path d="M119.917 24.4392V17.8642H95.8335V54.7242H103.579V40.03H117.476V33.455H103.579V24.4392H119.917ZM152.17 17.8642L142.83 41.0013L133.208 17.8642H123.728V54.7242H130.95V29.1463L139.567 49.3945H145.819L154.428 28.5237V54.7242H161.659V17.8642H152.17ZM182.828 50.6896C185.867 53.6948 190.275 55.1974 196.07 55.1974C197.489 55.1974 198.884 55.0895 200.254 54.8737C201.632 54.6578 202.86 54.359 203.94 53.9771V47.4768C201.408 48.2903 199.091 48.6971 197.016 48.6971C194.6 48.6971 192.616 48.3069 191.072 47.5266C189.519 46.7462 188.357 45.4511 187.569 43.633C186.78 41.8149 186.39 39.3576 186.39 36.2693C186.39 33.2806 186.788 30.8814 187.585 29.0633C188.374 27.2452 189.561 25.9252 191.138 25.1117C192.716 24.2981 194.725 23.8913 197.174 23.8913C199.432 23.8913 201.682 24.1736 203.94 24.7381V18.2378C201.673 17.6732 199.208 17.391 196.543 17.391C190.673 17.391 186.149 18.96 182.994 22.1147C179.848 25.2611 178.27 30.0097 178.27 36.3689C178.27 42.9108 179.79 47.6843 182.828 50.6896ZM213.586 53.1967C215.986 54.5333 218.841 55.1974 222.129 55.1974C225.392 55.1974 228.231 54.525 230.63 53.1801C233.029 51.8352 234.889 49.7598 236.225 46.9454C237.554 44.1311 238.218 40.5779 238.218 36.2942C238.218 32.0105 237.554 28.4656 236.234 25.6513C234.914 22.837 233.054 20.7532 230.655 19.4083C228.256 18.0634 225.417 17.391 222.129 17.391C218.841 17.391 215.994 18.0634 213.595 19.4C211.195 20.7283 209.328 22.8121 208.008 25.6264C206.679 28.4407 206.015 31.9939 206.015 36.2942C206.015 40.5945 206.671 44.1477 207.991 46.9703C209.311 49.7847 211.171 51.8601 213.586 53.1967ZM228.164 45.9243C226.778 47.8503 224.769 48.8216 222.129 48.8216C219.456 48.8216 217.422 47.842 216.052 45.8745C214.666 43.907 213.977 40.6527 213.977 36.1199C213.977 31.7531 214.674 28.6067 216.06 26.6724C217.447 24.7381 219.464 23.7668 222.129 23.7668C224.786 23.7668 226.803 24.7547 228.181 26.7222C229.551 28.6897 230.248 31.9358 230.248 36.4685C230.248 40.8353 229.551 43.99 228.164 45.9243ZM263.821 54.7242H272.164L262.202 39.9304C264.51 39.0338 266.278 37.6806 267.515 35.8874C268.752 34.0859 269.358 31.8776 269.35 29.2709C269.35 25.2694 268.071 22.2973 265.523 20.3464C262.974 18.3872 259.114 17.4159 253.958 17.4159C250.339 17.4159 246.727 17.8061 243.124 18.5864V54.7242H250.745V41.101C252.339 41.1674 253.56 41.2006 254.406 41.2006H254.88L263.821 54.7242ZM250.745 35.024V23.6921C251.999 23.4596 253.385 23.3434 254.905 23.3434C257.312 23.3434 259.105 23.8249 260.276 24.7879C261.455 25.7509 262.052 27.2535 262.052 29.2958C262.052 31.3712 261.43 32.8739 260.193 33.8037C258.956 34.7335 257.046 35.1984 254.456 35.1984C253.186 35.1984 251.949 35.1403 250.745 35.024ZM283.247 48.2488V39.1085H297.235V32.6331H283.247V24.3396H299.759V17.8642H275.601V54.7242H300V48.2488H283.247Z" fill="#E06262"/>
</svg>
