<svg width="209" height="164" viewBox="0 0 209 164" fill="none" xmlns="http://www.w3.org/2000/svg">
<path d="M104.5 0L142.12 23.9276V71.7829L104.5 95.7105L66.88 71.7829V23.9276L104.5 0Z" fill="#155B89"/>
<path d="M120.653 27.7168C120.594 27.5296 120.501 27.3573 120.381 27.2097C120.261 27.0622 120.116 26.9424 119.953 26.8572C119.594 26.6675 119.183 26.6675 118.819 26.8405C118.808 26.8405 118.804 26.8461 118.793 26.8517C118.788 26.8517 118.778 26.8517 118.773 26.8572C118.748 26.8684 118.727 26.8963 118.702 26.913C118.682 26.9354 118.656 26.941 118.636 26.9633L113.965 32.1092L110.291 28.0684L114.963 22.9224C114.963 22.9169 114.963 22.9113 114.968 22.9113C115.004 22.8666 115.039 22.8164 115.064 22.7606C115.064 22.755 115.064 22.7494 115.069 22.7438C115.069 22.7383 115.075 22.7271 115.075 22.7215C115.216 22.3643 115.227 21.968 115.105 21.6053C114.983 21.2257 114.73 20.9243 114.396 20.7513C114.041 20.5727 113.636 20.5671 113.276 20.7402C113.27 20.7402 113.261 20.7402 113.256 20.7457C113.25 20.7513 113.245 20.7513 113.241 20.7513C113.21 20.7681 113.19 20.7904 113.17 20.8127C113.144 20.8295 113.114 20.8406 113.094 20.863L108.422 26.0089L106.467 23.8489H106.462C106.051 23.3969 105.342 23.3969 104.931 23.8489L102.981 25.9977C102.768 26.2321 102.662 26.5391 102.662 26.8461C102.662 27.153 102.768 27.46 102.981 27.6888L103.908 28.7102C103.523 28.5651 103.082 28.6544 102.778 28.9893L98.7199 33.4599C98.6186 33.5771 98.573 33.7278 98.5781 33.8785C98.4767 33.9789 98.4058 34.1185 98.4058 34.2859C98.3703 36.5742 99.029 38.8067 100.255 40.6486C97.8019 42.6441 95.8123 45.2509 94.449 48.2558C94.449 48.262 94.4439 48.262 94.4439 48.262V48.2675C93.2141 50.8911 92.7741 53.8778 93.1875 56.7952C93.1875 56.8013 93.1925 56.8013 93.1925 56.8069V56.8236C93.4661 58.2575 93.8512 59.6812 94.3426 61.0431V61.0486C94.6212 61.8473 94.8746 62.6728 95.0975 63.4994C95.3052 64.2529 95.4369 65.0342 95.4876 65.8212C95.4977 65.949 95.4977 66.0718 95.4977 66.1951C95.4977 67.6016 95.0063 68.9634 94.1197 69.9848C92.6931 71.4638 90.7938 72.262 88.8355 72.2056C88.6227 72.2056 88.4403 72.3396 88.3593 72.5349C88.3339 72.6019 88.3137 72.6744 88.3137 72.747L88.2681 74.5162C88.2658 74.5896 88.2767 74.6628 88.3002 74.7315C88.3237 74.8002 88.3593 74.8631 88.405 74.9165C88.4507 74.97 88.5056 75.0129 88.5664 75.0429C88.6272 75.0729 88.6929 75.0892 88.7595 75.0911C88.8507 75.0967 88.947 75.0967 89.0381 75.0967C91.5966 75.0967 94.1045 73.9922 95.9588 72.0437C95.9638 72.0382 95.9638 72.0382 95.9638 72.0326C95.9689 72.0326 95.9689 72.0326 95.974 72.0264C97.4787 70.3242 98.2538 67.9862 98.1018 65.6197V65.6141C98.041 64.6151 97.8738 63.6216 97.6053 62.6672C97.3621 61.7742 97.0886 60.8812 96.7896 60.0105V60.0044C96.3533 58.8022 96.0126 57.5606 95.7713 56.2934C95.4399 53.9941 95.7936 51.6384 96.7795 49.5791V49.5736C96.7795 49.5736 96.7795 49.568 96.7846 49.568C98.0106 46.8443 99.8497 44.489 102.104 42.7365C103.765 44.1521 105.805 44.9215 107.905 44.9244H108.063C108.345 44.9201 108.614 44.7938 108.812 44.5727L112.87 40.1021C113.175 39.7673 113.256 39.2817 113.124 38.8631L114.304 40.1635C114.517 40.398 114.796 40.5152 115.075 40.5152C115.348 40.5152 115.627 40.398 115.84 40.1691V40.1635L117.791 38.0203C117.993 37.7915 118.11 37.4901 118.11 37.172C118.11 36.8538 117.993 36.5525 117.791 36.3292V36.3236L115.83 34.1693L120.501 29.0233C120.501 29.0177 120.506 29.0177 120.506 29.0122C120.542 28.9731 120.578 28.9229 120.602 28.8671C120.602 28.8615 120.602 28.8559 120.608 28.8447C120.613 28.8391 120.613 28.8336 120.613 28.8224C120.757 28.4739 120.771 28.0768 120.653 27.7168Z" fill="white"/>
<path d="M5.62625 154.725C5.62625 154.548 5.53938 154.46 5.37233 154.46H3.8622C3.74861 154.46 3.68846 154.401 3.68846 154.283V153.4C3.68846 153.061 3.76197 152.782 3.90229 152.575C4.0493 152.369 4.25644 152.266 4.53708 152.266H5.48593C5.55943 152.266 5.61288 152.244 5.65298 152.2C5.68639 152.149 5.70643 152.09 5.70643 152.023L5.69307 151.03C5.69307 150.824 5.58616 150.713 5.3857 150.713H3.8622C3.16059 150.713 2.61266 150.919 2.2251 151.331C1.84423 151.744 1.65046 152.325 1.65046 153.083V154.232C1.65046 154.386 1.59031 154.46 1.47672 154.46H0.25391C0.0868592 154.46 0 154.548 0 154.725V155.836C0 155.991 0.0801846 156.065 0.240553 156.065H1.53685C1.61036 156.065 1.65046 156.124 1.65046 156.227V163.544C1.65046 163.728 1.72396 163.823 1.87764 163.823H3.49469C3.65506 163.823 3.73524 163.72 3.73524 163.522V156.241C3.73524 156.124 3.78869 156.065 3.8956 156.065H5.3857C5.54607 156.065 5.62625 155.991 5.62625 155.836V154.725ZM16.3375 161.166C16.1371 160.783 16.0301 160.349 16.0301 159.863C16.0301 159.679 16.0903 159.583 16.2106 159.583H21.8836C21.9905 159.569 22.064 159.539 22.0974 159.495C22.1241 159.451 22.1442 159.362 22.1442 159.245V159.178C22.1442 158.163 21.9771 157.287 21.6364 156.55C21.3023 155.814 20.8278 155.255 20.2131 154.865C19.5983 154.475 18.89 154.283 18.0882 154.283C17.3064 154.283 16.5914 154.489 15.95 154.902C15.3085 155.314 14.8007 155.895 14.4265 156.654C14.0523 157.404 13.8652 158.273 13.8652 159.267C13.8652 160.187 14.0523 161.004 14.4131 161.718C14.7739 162.439 15.2818 162.999 15.9299 163.396C16.5781 163.801 17.3064 164 18.1149 164C18.9702 164 19.6919 163.838 20.2732 163.514C20.8546 163.19 21.3891 162.646 21.8702 161.88C21.9103 161.806 21.937 161.755 21.937 161.718C21.937 161.652 21.897 161.6 21.8235 161.563L20.8412 161.085C20.7811 161.048 20.7343 161.033 20.7009 161.033C20.6675 161.033 20.6274 161.063 20.5739 161.122C20.2532 161.556 19.9124 161.88 19.5516 162.086C19.1974 162.292 18.7965 162.395 18.3555 162.395C17.9278 162.395 17.5403 162.285 17.1794 162.064C16.8186 161.851 16.538 161.549 16.3375 161.166ZM19.8322 158.273H16.0636C16.0569 157.559 16.244 156.955 16.6315 156.462C17.0258 155.976 17.5336 155.733 18.1684 155.733C18.5693 155.733 18.9235 155.844 19.2175 156.065C19.5115 156.293 19.732 156.58 19.879 156.933C20.0327 157.287 20.1062 157.655 20.1062 158.03C20.1062 158.133 20.0861 158.199 20.0527 158.229C20.0126 158.258 19.9391 158.273 19.8322 158.273ZM33.3499 161.166C33.1495 160.783 33.0492 160.349 33.0492 159.863C33.0492 159.679 33.1027 159.583 33.223 159.583H38.9027C39.0096 159.569 39.0764 159.539 39.1098 159.495C39.1432 159.451 39.1566 159.362 39.1566 159.245V159.178C39.1566 158.163 38.9895 157.287 38.6488 156.55C38.3147 155.814 37.8402 155.255 37.2255 154.865C36.6107 154.475 35.9024 154.283 35.1006 154.283C34.3188 154.283 33.6105 154.489 32.969 154.902C32.3276 155.314 31.8197 155.895 31.4456 156.654C31.0714 157.404 30.8843 158.273 30.8843 159.267C30.8843 160.187 31.0647 161.004 31.4255 161.718C31.793 162.439 32.2942 162.999 32.9423 163.396C33.5905 163.801 34.3188 164 35.134 164C35.9893 164 36.7043 163.838 37.2856 163.514C37.8736 163.19 38.4015 162.646 38.8826 161.88C38.9294 161.806 38.9494 161.755 38.9494 161.718C38.9494 161.652 38.9094 161.6 38.8359 161.563L37.8603 161.085C37.7935 161.048 37.7467 161.033 37.7133 161.033C37.6799 161.033 37.6398 161.063 37.5863 161.122C37.2656 161.556 36.9248 161.88 36.564 162.086C36.2098 162.292 35.8089 162.395 35.3746 162.395C34.9469 162.395 34.5527 162.285 34.1919 162.064C33.8377 161.851 33.5571 161.549 33.3499 161.166ZM36.8446 158.273H33.076C33.0693 157.559 33.2564 156.955 33.6506 156.462C34.0382 155.976 34.546 155.733 35.1808 155.733C35.5884 155.733 35.9359 155.844 36.2299 156.065C36.5239 156.293 36.7444 156.58 36.8981 156.933C37.0451 157.287 37.1186 157.655 37.1186 158.03C37.1186 158.133 37.0985 158.199 37.0651 158.229C37.025 158.258 36.9515 158.273 36.8446 158.273ZM50.4158 163.433V151C50.4158 150.809 50.3356 150.713 50.1886 150.713H48.5983C48.4379 150.713 48.3577 150.816 48.3577 151.015L48.3109 163.507C48.3109 163.625 48.3377 163.706 48.3845 163.75C48.4312 163.801 48.5181 163.823 48.6317 163.823H50.0416C50.1819 163.823 50.2821 163.794 50.3356 163.742C50.3891 163.691 50.4158 163.588 50.4158 163.433ZM74.2104 156.065H76.0213C76.2017 156.065 76.2952 155.976 76.2952 155.8V154.688C76.2952 154.526 76.215 154.445 76.0547 154.445H74.2372C74.1436 154.445 74.0968 154.386 74.0968 154.283V151.582C74.0968 151.486 74.0768 151.412 74.03 151.361C73.9899 151.309 73.9365 151.28 73.8696 151.28H72.4464C72.3662 151.28 72.3127 151.302 72.286 151.339C72.2526 151.383 72.2326 151.457 72.2192 151.56L72.012 154.283C72.012 154.401 71.9653 154.46 71.865 154.46H70.6823C70.522 154.46 70.4418 154.534 70.4418 154.688V155.8C70.4418 155.976 70.522 156.065 70.6957 156.065H71.7715C71.8984 156.065 71.9653 156.146 71.9653 156.3V161.578C71.9653 162.336 72.1524 162.896 72.5332 163.264C72.9141 163.639 73.462 163.823 74.1904 163.823C74.9855 163.823 75.5736 163.787 75.9544 163.72C76.1616 163.683 76.2618 163.566 76.2618 163.367L76.2752 162.447C76.2752 162.373 76.2551 162.314 76.215 162.27C76.1683 162.219 76.1148 162.196 76.0547 162.196H75.1058C74.7316 162.196 74.4643 162.108 74.2973 161.924C74.1302 161.74 74.0501 161.424 74.0501 160.982V156.263C74.0501 156.131 74.1035 156.065 74.2104 156.065ZM85.4295 163.507C85.4295 163.72 85.5364 163.823 85.7369 163.823H87.1669C87.2938 163.823 87.3807 163.794 87.4341 163.742C87.4876 163.691 87.5143 163.602 87.5143 163.47V157.184C87.9019 156.757 88.2493 156.447 88.5567 156.263C88.8708 156.072 89.2115 155.976 89.5857 155.976C90.0268 155.976 90.3542 156.109 90.5814 156.359C90.8019 156.609 90.9155 156.97 90.9155 157.426V163.507C90.9155 163.625 90.9355 163.706 90.9756 163.75C91.009 163.801 91.0825 163.823 91.1894 163.823H92.6661C92.8867 163.823 93.0002 163.698 93.0002 163.455V157.058C93.0002 156.182 92.7797 155.505 92.3454 155.019C91.9044 154.526 91.2763 154.283 90.4544 154.283C89.9599 154.283 89.5056 154.386 89.0779 154.592C88.6569 154.799 88.1825 155.152 87.648 155.645C87.5945 155.689 87.5477 155.711 87.5143 155.697C87.4876 155.682 87.4675 155.645 87.4675 155.571V150.978C87.4675 150.801 87.4007 150.713 87.2604 150.713H85.6701C85.5097 150.713 85.4295 150.816 85.4295 151.015V163.507ZM104.607 161.166C104.406 160.783 104.306 160.349 104.306 159.863C104.306 159.679 104.366 159.583 104.48 159.583H110.16C110.267 159.569 110.333 159.539 110.367 159.495C110.4 159.451 110.414 159.362 110.414 159.245V159.178C110.414 158.163 110.247 157.287 109.912 156.55C109.572 155.814 109.097 155.255 108.482 154.865C107.868 154.475 107.159 154.283 106.358 154.283C105.576 154.283 104.868 154.489 104.226 154.902C103.585 155.314 103.077 155.895 102.703 156.654C102.328 157.404 102.141 158.273 102.141 159.267C102.141 160.187 102.322 161.004 102.682 161.718C103.05 162.439 103.551 162.999 104.199 163.396C104.847 163.801 105.576 164 106.391 164C107.246 164 107.961 163.838 108.549 163.514C109.131 163.19 109.659 162.646 110.14 161.88C110.186 161.806 110.206 161.755 110.206 161.718C110.206 161.652 110.166 161.6 110.093 161.563L109.117 161.085C109.05 161.048 109.004 161.033 108.97 161.033C108.937 161.033 108.897 161.063 108.843 161.122C108.523 161.556 108.182 161.88 107.828 162.086C107.467 162.292 107.066 162.395 106.632 162.395C106.204 162.395 105.81 162.285 105.449 162.064C105.095 161.851 104.814 161.549 104.607 161.166ZM108.108 158.273H104.34C104.326 157.559 104.513 156.955 104.908 156.462C105.295 155.976 105.81 155.733 106.438 155.733C106.845 155.733 107.193 155.844 107.487 156.065C107.781 156.293 108.001 156.58 108.155 156.933C108.302 157.287 108.376 157.655 108.376 158.03C108.376 158.133 108.362 158.199 108.322 158.229C108.282 158.258 108.215 158.273 108.108 158.273ZM139.033 157.625C139.814 156.941 140.209 155.969 140.209 154.71C140.209 153.385 139.781 152.391 138.932 151.722C138.084 151.052 136.981 150.713 135.625 150.713H131.081C130.921 150.713 130.84 150.816 130.84 151.015V163.507C130.84 163.72 130.941 163.823 131.134 163.823H132.865C133.099 163.823 133.219 163.706 133.219 163.47V158.825C133.219 158.707 133.273 158.648 133.38 158.648H135.892C137.202 158.648 138.244 158.302 139.033 157.625ZM137.162 153.105C137.569 153.444 137.77 153.959 137.77 154.651C137.77 155.336 137.576 155.859 137.188 156.219C136.794 156.58 136.266 156.757 135.591 156.757H133.426C133.353 156.757 133.299 156.735 133.266 156.683C133.233 156.639 133.219 156.565 133.219 156.455V152.885C133.219 152.701 133.306 152.605 133.487 152.605H135.491C136.199 152.605 136.754 152.774 137.162 153.105ZM150.452 163.389C151.094 163.794 151.829 164 152.651 164C153.472 164 154.207 163.794 154.849 163.382C155.49 162.969 155.992 162.395 156.346 161.666C156.707 160.938 156.887 160.106 156.887 159.178C156.887 158.236 156.707 157.39 156.352 156.654C156.005 155.91 155.504 155.329 154.862 154.909C154.221 154.489 153.493 154.283 152.664 154.283C151.855 154.283 151.127 154.489 150.486 154.902C149.844 155.314 149.343 155.895 148.975 156.639C148.615 157.39 148.434 158.244 148.434 159.193C148.434 160.128 148.608 160.952 148.962 161.689C149.316 162.417 149.811 162.984 150.452 163.389ZM154.228 161.578C153.873 162.145 153.352 162.425 152.664 162.425C151.996 162.425 151.475 162.145 151.1 161.578C150.733 161.011 150.552 160.202 150.552 159.142C150.552 158.067 150.733 157.242 151.1 156.668C151.475 156.094 151.996 155.8 152.664 155.8C153.339 155.8 153.86 156.094 154.221 156.668C154.588 157.242 154.769 158.067 154.769 159.142C154.769 160.202 154.588 161.011 154.228 161.578ZM177.681 154.563C177.641 154.497 177.574 154.46 177.488 154.46H176.465C176.392 154.46 176.325 154.482 176.265 154.534C176.205 154.578 176.165 154.637 176.145 154.71L174.588 160.341C174.554 160.474 174.521 160.54 174.474 160.54C174.434 160.54 174.394 160.481 174.36 160.364L172.777 154.725C172.723 154.548 172.623 154.46 172.469 154.46H171.313C171.166 154.46 171.066 154.541 171.013 154.71L169.456 160.341C169.422 160.474 169.382 160.54 169.329 160.54C169.309 160.54 169.289 160.518 169.269 160.481C169.255 160.452 169.242 160.408 169.229 160.364L167.625 154.725C167.618 154.644 167.585 154.578 167.525 154.534C167.465 154.482 167.391 154.46 167.304 154.46H165.754C165.674 154.46 165.62 154.482 165.574 154.534C165.533 154.578 165.513 154.637 165.513 154.71C165.513 154.769 165.513 154.806 165.527 154.828L168.093 163.522C168.133 163.72 168.26 163.823 168.46 163.823H169.65C169.743 163.823 169.817 163.801 169.863 163.764C169.91 163.72 169.95 163.654 169.97 163.558L171.507 158.067C171.541 157.956 171.581 157.905 171.621 157.905C171.661 157.905 171.701 157.956 171.734 158.067L173.291 163.522C173.351 163.72 173.478 163.823 173.672 163.823H174.815C174.982 163.823 175.089 163.735 175.136 163.558L177.701 154.813C177.728 154.718 177.728 154.637 177.681 154.563ZM188.814 161.166C188.606 160.783 188.506 160.349 188.506 159.863C188.506 159.679 188.566 159.583 188.68 159.583H194.36C194.467 159.569 194.533 159.539 194.567 159.495C194.6 159.451 194.614 159.362 194.614 159.245V159.178C194.614 158.163 194.447 157.287 194.112 156.55C193.772 155.814 193.297 155.255 192.683 154.865C192.068 154.475 191.359 154.283 190.558 154.283C189.776 154.283 189.068 154.489 188.426 154.902C187.785 155.314 187.277 155.895 186.903 156.654C186.528 157.404 186.341 158.273 186.341 159.267C186.341 160.187 186.522 161.004 186.889 161.718C187.25 162.439 187.758 162.999 188.399 163.396C189.048 163.801 189.776 164 190.591 164C191.446 164 192.168 163.838 192.749 163.514C193.331 163.19 193.865 162.646 194.346 161.88C194.386 161.806 194.406 161.755 194.406 161.718C194.406 161.652 194.373 161.6 194.293 161.563L193.317 161.085C193.25 161.048 193.204 161.033 193.17 161.033C193.144 161.033 193.097 161.063 193.043 161.122C192.723 161.556 192.382 161.88 192.028 162.086C191.667 162.292 191.273 162.395 190.832 162.395C190.404 162.395 190.01 162.285 189.656 162.064C189.295 161.851 189.014 161.549 188.814 161.166ZM192.308 158.273H188.54C188.526 157.559 188.72 156.955 189.108 156.462C189.495 155.976 190.01 155.733 190.638 155.733C191.045 155.733 191.393 155.844 191.687 156.065C191.981 156.293 192.208 156.58 192.355 156.933C192.502 157.287 192.582 157.655 192.582 158.03C192.582 158.133 192.562 158.199 192.522 158.229C192.489 158.258 192.415 158.273 192.308 158.273ZM203.788 163.507C203.788 163.72 203.882 163.823 204.075 163.823H205.505C205.746 163.823 205.873 163.706 205.873 163.47V158.067C205.873 157.78 205.973 157.507 206.167 157.242C206.367 156.977 206.615 156.764 206.922 156.595C207.229 156.433 207.517 156.352 207.797 156.352C208.158 156.352 208.492 156.389 208.793 156.477C208.926 156.499 209 156.425 209 156.263V154.563C209 154.379 208.806 154.283 208.419 154.283C208.018 154.283 207.597 154.423 207.169 154.695C206.741 154.975 206.354 155.358 206 155.859C205.946 155.917 205.906 155.947 205.873 155.947C205.819 155.947 205.793 155.895 205.793 155.8V154.725C205.793 154.548 205.719 154.46 205.565 154.46H204.009C203.862 154.46 203.788 154.563 203.788 154.762V163.507Z" fill="#155B89"/>
</svg>
