<svg width="214" height="164" viewBox="0 0 214 164" fill="none" xmlns="http://www.w3.org/2000/svg">
<path d="M107 0L145.52 23.9276V71.7829L107 95.7105L68.48 71.7829V23.9276L107 0Z" fill="#155B89"/>
<path d="M123.539 27.7168C123.478 27.5296 123.384 27.3573 123.261 27.2097C123.138 27.0622 122.989 26.9424 122.823 26.8572C122.455 26.6675 122.035 26.6675 121.661 26.8405C121.651 26.8405 121.646 26.8461 121.635 26.8517C121.63 26.8517 121.62 26.8517 121.614 26.8572C121.588 26.8684 121.568 26.8963 121.542 26.913C121.521 26.9354 121.495 26.941 121.474 26.9633L116.691 32.1092L112.93 28.0684L117.713 22.9224C117.713 22.9169 117.713 22.9113 117.719 22.9113C117.755 22.8666 117.791 22.8164 117.817 22.7606C117.817 22.755 117.817 22.7494 117.822 22.7438C117.822 22.7383 117.828 22.7271 117.828 22.7215C117.973 22.3643 117.983 21.968 117.859 21.6053C117.734 21.2257 117.475 20.9243 117.132 20.7513C116.769 20.5727 116.354 20.5671 115.986 20.7402C115.98 20.7402 115.97 20.7402 115.965 20.7457C115.959 20.7513 115.954 20.7513 115.95 20.7513C115.918 20.7681 115.898 20.7904 115.877 20.8127C115.851 20.8295 115.82 20.8406 115.799 20.863L111.016 26.0089L109.014 23.8489H109.009C108.588 23.3969 107.862 23.3969 107.442 23.8489L105.444 25.9977C105.226 26.2321 105.118 26.5391 105.118 26.8461C105.118 27.153 105.226 27.46 105.444 27.6888L106.394 28.7102C105.999 28.5651 105.548 28.6544 105.237 28.9893L101.082 33.4599C100.978 33.5771 100.931 33.7278 100.936 33.8785C100.833 33.9789 100.76 34.1185 100.76 34.2859C100.724 36.5742 101.398 38.8067 102.653 40.6486C100.142 42.6441 98.1044 45.2509 96.7085 48.2558C96.7085 48.262 96.7033 48.262 96.7033 48.262V48.2675C95.4441 50.8911 94.9936 53.8778 95.4168 56.7952C95.4168 56.8013 95.422 56.8013 95.422 56.8069V56.8236C95.7021 58.2575 96.0964 59.6812 96.5996 61.0431V61.0486C96.8849 61.8473 97.1443 62.6728 97.3725 63.4994C97.5852 64.2529 97.7201 65.0342 97.772 65.8212C97.7823 65.949 97.7823 66.0718 97.7823 66.1951C97.7823 67.6016 97.2791 68.9634 96.3713 69.9848C94.9106 71.4638 92.9659 72.262 90.9607 72.2056C90.7428 72.2056 90.5561 72.3396 90.4731 72.5349C90.4472 72.6019 90.4264 72.6744 90.4264 72.747L90.3797 74.5162C90.3774 74.5896 90.3885 74.6628 90.4126 74.7315C90.4367 74.8002 90.4732 74.8631 90.52 74.9165C90.5667 74.97 90.6229 75.0129 90.6852 75.0429C90.7475 75.0729 90.8147 75.0892 90.8829 75.0911C90.9763 75.0967 91.0748 75.0967 91.1682 75.0967C93.7879 75.0967 96.3558 73.9922 98.2544 72.0437C98.2596 72.0382 98.2596 72.0382 98.2596 72.0326C98.2648 72.0326 98.2648 72.0326 98.27 72.0264C99.8107 70.3242 100.604 67.9862 100.449 65.6197V65.6141C100.386 64.6151 100.215 63.6216 99.9404 62.6672C99.6914 61.7742 99.4112 60.8812 99.1052 60.0105V60.0044C98.6584 58.8022 98.3095 57.5606 98.0625 56.2934C97.7231 53.9941 98.0853 51.6384 99.0948 49.5791V49.5736C99.0948 49.5736 99.0948 49.568 99.1 49.568C100.355 46.8443 102.238 44.489 104.547 42.7365C106.248 44.1521 108.336 44.9215 110.487 44.9244H110.648C110.937 44.9201 111.212 44.7938 111.415 44.5727L115.57 40.1021C115.882 39.7673 115.965 39.2817 115.83 38.8631L117.038 40.1635C117.256 40.398 117.542 40.5152 117.828 40.5152C118.108 40.5152 118.393 40.398 118.611 40.1691V40.1635L120.609 38.0203C120.816 37.7915 120.935 37.4901 120.935 37.172C120.935 36.8538 120.816 36.5525 120.609 36.3292V36.3236L118.601 34.1693L123.384 29.0233C123.384 29.0177 123.389 29.0177 123.389 29.0122C123.425 28.9731 123.462 28.9229 123.488 28.8671C123.488 28.8615 123.488 28.8559 123.493 28.8447C123.498 28.8391 123.498 28.8336 123.498 28.8224C123.646 28.4739 123.66 28.0768 123.539 27.7168Z" fill="white"/>
<path d="M0.184733 107.437C0.0615797 107.599 0 107.827 0 108.121V138.95C0 139.303 0.0684208 139.561 0.205258 139.723C0.342095 139.885 0.602086 139.966 0.985231 139.966H7.0608C7.49868 139.966 7.81341 139.877 8.00498 139.701C8.19656 139.524 8.29234 139.23 8.29234 138.817V127.599C8.29234 127.187 8.4976 126.981 8.90812 126.981H17.2005C17.6657 126.981 17.8983 126.76 17.8983 126.318V121.504C17.8983 120.974 17.6383 120.709 17.1184 120.709H8.94916C8.51129 120.709 8.29234 120.429 8.29234 119.87V114.481C8.29234 114.187 8.36076 113.981 8.4976 113.863C8.63444 113.745 8.85338 113.686 9.15442 113.686H21.5929C22.195 113.686 22.4961 113.333 22.4961 112.626L22.5371 108.033C22.5371 107.474 22.3182 107.194 21.8803 107.194H0.697873C0.478934 107.194 0.307887 107.275 0.184733 107.437ZM30.6653 139.657C30.8295 139.863 31.0621 139.966 31.3631 139.966H36.2072C36.5629 139.966 36.7956 139.907 36.905 139.789C37.0145 139.671 37.0692 139.436 37.0692 139.082V118.501C37.0692 118.206 37.124 118.059 37.2334 118.059C37.3155 118.059 37.3977 118.192 37.4798 118.457L43.9658 139.215C44.1301 139.716 44.4585 139.966 44.9511 139.966H48.8099C49.2751 139.966 49.5899 139.716 49.7541 139.215L56.2402 118.147C56.3223 117.912 56.418 117.794 56.5275 117.794C56.637 117.794 56.6917 117.897 56.6917 118.103V138.95C56.6917 139.303 56.7601 139.561 56.897 139.723C57.0338 139.885 57.2938 139.966 57.677 139.966H63.7936C64.2315 139.966 64.5393 139.877 64.7172 139.701C64.8951 139.524 64.9841 139.23 64.9841 138.817V108.033C64.9841 107.474 64.7514 107.194 64.2862 107.194H53.9002C53.435 107.194 53.0929 107.577 52.874 108.342L48.071 124.11C47.9889 124.345 47.8931 124.463 47.7836 124.463C47.6741 124.463 47.5783 124.345 47.4962 124.11L42.3238 107.945C42.2143 107.65 42.0912 107.452 41.9543 107.349C41.8175 107.245 41.5849 107.194 41.2565 107.194H31.1989C30.9252 107.194 30.7268 107.268 30.6037 107.415C30.4805 107.562 30.4189 107.798 30.4189 108.121V138.817C30.4189 139.171 30.501 139.451 30.6653 139.657ZM105.748 108.033C103.942 107.179 101.958 106.752 99.7955 106.752C96.8945 106.752 94.3767 107.422 92.2421 108.762C90.1074 110.102 88.4585 112.015 87.2954 114.504C86.1323 116.992 85.5507 119.899 85.5507 123.227C85.5507 126.583 86.1323 129.557 87.2954 132.148C88.4585 134.739 90.1142 136.764 92.2626 138.221C94.4109 139.679 96.9082 140.407 99.7544 140.407C102.464 140.407 104.756 139.819 106.631 138.641C108.505 137.463 109.942 136.109 110.941 134.577C111.94 133.046 112.549 131.692 112.768 130.514C112.795 130.396 112.809 130.249 112.809 130.072C112.809 129.778 112.761 129.572 112.665 129.454C112.569 129.336 112.439 129.248 112.275 129.189L107.636 128.217C107.527 128.188 107.39 128.173 107.226 128.173C106.897 128.173 106.692 128.291 106.61 128.527C105.898 130.44 105.002 131.817 103.921 132.656C102.84 133.495 101.533 133.915 100.001 133.915C98.0577 133.915 96.6072 133.083 95.6493 131.42C94.6915 129.756 94.2125 127.069 94.2125 123.359C94.2125 116.381 96.1419 112.891 100.001 112.891C102.573 112.891 104.174 114.511 104.804 117.75C104.886 118.074 104.961 118.287 105.03 118.39C105.098 118.493 105.255 118.545 105.502 118.545L111.906 118.059C112.125 118.03 112.275 117.978 112.357 117.904C112.439 117.831 112.48 117.676 112.48 117.441L112.398 116.69C112.07 114.805 111.331 113.105 110.181 111.589C109.032 110.072 107.554 108.887 105.748 108.033ZM126.458 138.376C128.634 139.73 131.186 140.407 134.114 140.407C137.015 140.407 139.554 139.723 141.729 138.354C143.905 136.985 145.581 135.041 146.758 132.524C147.935 130.006 148.523 127.054 148.523 123.668C148.523 120.253 147.928 117.271 146.738 114.724C145.547 112.177 143.864 110.212 141.688 108.828C139.513 107.444 136.988 106.752 134.114 106.752C131.213 106.752 128.675 107.444 126.499 108.828C124.324 110.212 122.64 112.177 121.45 114.724C120.26 117.271 119.664 120.253 119.664 123.668C119.664 127.084 120.253 130.05 121.429 132.568C122.606 135.085 124.283 137.021 126.458 138.376ZM138.486 131.795C137.597 133.414 136.153 134.224 134.155 134.224C132.103 134.224 130.625 133.414 129.722 131.795C128.819 130.175 128.367 127.511 128.367 123.801C128.367 119.973 128.826 117.198 129.742 115.475C130.659 113.753 132.116 112.891 134.114 112.891C136.085 112.891 137.528 113.753 138.445 115.475C139.362 117.198 139.82 119.973 139.82 123.801C139.82 127.511 139.376 130.175 138.486 131.795ZM182.432 139.082C182.432 139.024 182.404 138.876 182.349 138.641L177.054 125.921C177.026 125.832 177.013 125.715 177.013 125.567C177.013 125.332 177.081 125.185 177.218 125.126C178.833 124.507 180.153 123.418 181.18 121.857C182.206 120.297 182.719 118.471 182.719 116.381C182.719 113.466 181.665 111.206 179.558 109.601C177.451 107.996 174.481 107.194 170.65 107.194H157.349C156.884 107.194 156.651 107.503 156.651 108.121V138.95C156.651 139.303 156.72 139.561 156.857 139.723C156.994 139.885 157.24 139.966 157.596 139.966H163.712C164.15 139.966 164.465 139.877 164.656 139.701C164.848 139.524 164.944 139.215 164.944 138.773V127.069C164.944 126.951 164.985 126.841 165.067 126.738C165.149 126.635 165.272 126.583 165.436 126.583H168.269C168.652 126.583 168.933 126.635 169.11 126.738C169.288 126.841 169.418 127.01 169.5 127.246L173.606 139.127C173.77 139.686 174.112 139.966 174.632 139.966H181.652C181.898 139.966 182.089 139.885 182.226 139.723C182.363 139.561 182.432 139.347 182.432 139.082ZM173.113 119.693C172.429 120.341 171.43 120.665 170.116 120.665H165.56C165.313 120.665 165.149 120.599 165.067 120.466C164.985 120.334 164.944 120.105 164.944 119.782V113.863C164.944 113.569 165.005 113.363 165.128 113.245C165.252 113.127 165.477 113.068 165.806 113.068H170.116C171.293 113.068 172.258 113.407 173.01 114.084C173.763 114.761 174.139 115.718 174.139 116.955C174.139 118.133 173.797 119.045 173.113 119.693ZM191.463 107.194C190.998 107.194 190.765 107.503 190.765 108.121V138.95C190.765 139.303 190.84 139.561 190.991 139.723C191.141 139.885 191.394 139.966 191.75 139.966H213.138C213.713 139.966 214 139.671 214 139.082V134.224C214 133.959 213.932 133.768 213.795 133.65C213.658 133.532 213.453 133.473 213.179 133.473H199.509C199.345 133.473 199.228 133.429 199.16 133.341C199.092 133.252 199.057 133.105 199.057 132.899V127.29C199.057 126.878 199.263 126.672 199.673 126.672H207.842C208.28 126.672 208.499 126.451 208.499 126.009V121.107C208.499 120.577 208.239 120.312 207.719 120.312H199.714C199.523 120.312 199.365 120.238 199.242 120.091C199.119 119.943 199.057 119.737 199.057 119.472V114.481C199.057 113.951 199.345 113.686 199.919 113.686H212.604C212.933 113.686 213.179 113.591 213.343 113.399C213.507 113.208 213.589 112.95 213.589 112.626V108.033C213.589 107.474 213.371 107.194 212.933 107.194H191.463Z" fill="#383838"/>
<path d="M5.76085 154.725C5.76085 154.548 5.6719 154.46 5.50086 154.46H3.9546C3.83829 154.46 3.7767 154.401 3.7767 154.283V153.4C3.7767 153.061 3.85197 152.782 3.99565 152.575C4.14617 152.369 4.35827 152.266 4.64562 152.266H5.61717C5.69243 152.266 5.74716 152.244 5.78821 152.2C5.82242 152.149 5.84295 152.09 5.84295 152.023L5.82926 151.03C5.82926 150.824 5.7198 150.713 5.51454 150.713H3.9546C3.2362 150.713 2.67516 150.919 2.27833 151.331C1.88835 151.744 1.68994 152.325 1.68994 153.083V154.232C1.68994 154.386 1.62836 154.46 1.51205 154.46H0.259984C0.0889372 154.46 0 154.548 0 154.725V155.836C0 155.991 0.0821028 156.065 0.246308 156.065H1.57362C1.64888 156.065 1.68994 156.124 1.68994 156.227V163.544C1.68994 163.728 1.7652 163.823 1.92256 163.823H3.57829C3.7425 163.823 3.8246 163.72 3.8246 163.522V156.241C3.8246 156.124 3.87933 156.065 3.9888 156.065H5.51454C5.67875 156.065 5.76085 155.991 5.76085 155.836V154.725ZM16.7284 161.166C16.5231 160.783 16.4136 160.349 16.4136 159.863C16.4136 159.679 16.4752 159.583 16.5984 159.583H22.4071C22.5166 159.569 22.5918 159.539 22.6261 159.495C22.6534 159.451 22.6739 159.362 22.6739 159.245V159.178C22.6739 158.163 22.5029 157.287 22.154 156.55C21.8119 155.814 21.3261 155.255 20.6966 154.865C20.0672 154.475 19.342 154.283 18.5209 154.283C17.7204 154.283 16.9884 154.489 16.3315 154.902C15.6747 155.314 15.1547 155.895 14.7716 156.654C14.3884 157.404 14.1969 158.273 14.1969 159.267C14.1969 160.187 14.3884 161.004 14.7579 161.718C15.1274 162.439 15.6473 162.999 16.311 163.396C16.9747 163.801 17.7204 164 18.5483 164C19.4241 164 20.163 163.838 20.7582 163.514C21.3535 163.19 21.9008 162.646 22.3934 161.88C22.4345 161.806 22.4618 161.755 22.4618 161.718C22.4618 161.652 22.4208 161.6 22.3455 161.563L21.3398 161.085C21.2782 161.048 21.2303 161.033 21.1961 161.033C21.1619 161.033 21.1208 161.063 21.0661 161.122C20.7377 161.556 20.3888 161.88 20.0193 162.086C19.6567 162.292 19.2462 162.395 18.7946 162.395C18.3567 162.395 17.9599 162.285 17.5904 162.064C17.221 161.851 16.9336 161.549 16.7284 161.166ZM20.3067 158.273H16.4478C16.441 157.559 16.6326 156.955 17.0294 156.462C17.4331 155.976 17.9531 155.733 18.603 155.733C19.0135 155.733 19.3762 155.844 19.6772 156.065C19.9783 156.293 20.204 156.58 20.3546 156.933C20.5119 157.287 20.5872 157.655 20.5872 158.03C20.5872 158.133 20.5667 158.199 20.5324 158.229C20.4914 158.258 20.4161 158.273 20.3067 158.273ZM34.1478 161.166C33.9425 160.783 33.8399 160.349 33.8399 159.863C33.8399 159.679 33.8946 159.583 34.0178 159.583H39.8334C39.9428 159.569 40.0112 159.539 40.0454 159.495C40.0797 159.451 40.0933 159.362 40.0933 159.245V159.178C40.0933 158.163 39.9223 157.287 39.5734 156.55C39.2313 155.814 38.7455 155.255 38.116 154.865C37.4866 154.475 36.7614 154.283 35.9403 154.283C35.1398 154.283 34.4146 154.489 33.7578 154.902C33.101 155.314 32.581 155.895 32.1978 156.654C31.8147 157.404 31.6231 158.273 31.6231 159.267C31.6231 160.187 31.8078 161.004 32.1773 161.718C32.5536 162.439 33.0667 162.999 33.7304 163.396C34.3941 163.801 35.1398 164 35.9745 164C36.8503 164 37.5824 163.838 38.1776 163.514C38.7797 163.19 39.3202 162.646 39.8128 161.88C39.8607 161.806 39.8812 161.755 39.8812 161.718C39.8812 161.652 39.8402 161.6 39.7649 161.563L38.766 161.085C38.6976 161.048 38.6497 161.033 38.6155 161.033C38.5813 161.033 38.5402 161.063 38.4855 161.122C38.1571 161.556 37.8082 161.88 37.4387 162.086C37.0761 162.292 36.6656 162.395 36.2208 162.395C35.783 162.395 35.3793 162.285 35.0098 162.064C34.6472 161.851 34.3599 161.549 34.1478 161.166ZM37.7261 158.273H33.8672C33.8604 157.559 34.052 156.955 34.4556 156.462C34.8525 155.976 35.3725 155.733 36.0224 155.733C36.4398 155.733 36.7956 155.844 37.0966 156.065C37.3976 156.293 37.6234 156.58 37.7808 156.933C37.9313 157.287 38.0066 157.655 38.0066 158.03C38.0066 158.133 37.986 158.199 37.9518 158.229C37.9108 158.258 37.8355 158.273 37.7261 158.273ZM51.6219 163.433V151C51.6219 150.809 51.5398 150.713 51.3893 150.713H49.7609C49.5967 150.713 49.5146 150.816 49.5146 151.015L49.4667 163.507C49.4667 163.625 49.4941 163.706 49.542 163.75C49.5899 163.801 49.6788 163.823 49.7951 163.823H51.2387C51.3824 163.823 51.4851 163.794 51.5398 163.742C51.5945 163.691 51.6219 163.588 51.6219 163.433ZM75.9858 156.065H77.8399C78.0247 156.065 78.1204 155.976 78.1204 155.8V154.688C78.1204 154.526 78.0383 154.445 77.8741 154.445H76.0131C75.9174 154.445 75.8695 154.386 75.8695 154.283V151.582C75.8695 151.486 75.8489 151.412 75.8011 151.361C75.76 151.309 75.7053 151.28 75.6368 151.28H74.1795C74.0974 151.28 74.0427 151.302 74.0153 151.339C73.9811 151.383 73.9606 151.457 73.9469 151.56L73.7348 154.283C73.7348 154.401 73.6869 154.46 73.5843 154.46H72.3733C72.2091 154.46 72.127 154.534 72.127 154.688V155.8C72.127 155.976 72.2091 156.065 72.387 156.065H73.4885C73.6185 156.065 73.6869 156.146 73.6869 156.3V161.578C73.6869 162.336 73.8785 162.896 74.2685 163.264C74.6585 163.639 75.2195 163.823 75.9653 163.823C76.7794 163.823 77.3815 163.787 77.7715 163.72C77.9836 163.683 78.0862 163.566 78.0862 163.367L78.0999 162.447C78.0999 162.373 78.0794 162.314 78.0383 162.27C77.9905 162.219 77.9357 162.196 77.8741 162.196H76.9026C76.5194 162.196 76.2458 162.108 76.0747 161.924C75.9037 161.74 75.8216 161.424 75.8216 160.982V156.263C75.8216 156.131 75.8763 156.065 75.9858 156.065ZM87.4733 163.507C87.4733 163.72 87.5828 163.823 87.788 163.823H89.2522C89.3822 163.823 89.4711 163.794 89.5258 163.742C89.5806 163.691 89.6079 163.602 89.6079 163.47V157.184C90.0048 156.757 90.3606 156.447 90.6753 156.263C90.9968 156.072 91.3458 155.976 91.7289 155.976C92.1805 155.976 92.5157 156.109 92.7484 156.359C92.9741 156.609 93.0905 156.97 93.0905 157.426V163.507C93.0905 163.625 93.111 163.706 93.152 163.75C93.1862 163.801 93.2615 163.823 93.371 163.823H94.883C95.1088 163.823 95.2251 163.698 95.2251 163.455V157.058C95.2251 156.182 94.9993 155.505 94.5546 155.019C94.1031 154.526 93.4599 154.283 92.6184 154.283C92.1121 154.283 91.6468 154.386 91.2089 154.592C90.7779 154.799 90.2921 155.152 89.7448 155.645C89.69 155.689 89.6422 155.711 89.6079 155.697C89.5806 155.682 89.5601 155.645 89.5601 155.571V150.978C89.5601 150.801 89.4916 150.713 89.348 150.713H87.7196C87.5554 150.713 87.4733 150.816 87.4733 151.015V163.507ZM107.109 161.166C106.904 160.783 106.802 160.349 106.802 159.863C106.802 159.679 106.863 159.583 106.979 159.583H112.795C112.905 159.569 112.973 159.539 113.007 159.495C113.041 159.451 113.055 159.362 113.055 159.245V159.178C113.055 158.163 112.884 157.287 112.542 156.55C112.193 155.814 111.707 155.255 111.078 154.865C110.448 154.475 109.723 154.283 108.902 154.283C108.102 154.283 107.376 154.489 106.719 154.902C106.063 155.314 105.543 155.895 105.16 156.654C104.776 157.404 104.585 158.273 104.585 159.267C104.585 160.187 104.77 161.004 105.139 161.718C105.515 162.439 106.028 162.999 106.692 163.396C107.356 163.801 108.102 164 108.936 164C109.812 164 110.544 163.838 111.146 163.514C111.741 163.19 112.282 162.646 112.775 161.88C112.822 161.806 112.843 161.755 112.843 161.718C112.843 161.652 112.802 161.6 112.727 161.563L111.728 161.085C111.659 161.048 111.611 161.033 111.577 161.033C111.543 161.033 111.502 161.063 111.447 161.122C111.119 161.556 110.77 161.88 110.407 162.086C110.038 162.292 109.627 162.395 109.183 162.395C108.745 162.395 108.341 162.285 107.972 162.064C107.609 161.851 107.322 161.549 107.109 161.166ZM110.695 158.273H106.836C106.822 157.559 107.014 156.955 107.417 156.462C107.814 155.976 108.341 155.733 108.984 155.733C109.401 155.733 109.757 155.844 110.058 156.065C110.359 156.293 110.585 156.58 110.742 156.933C110.893 157.287 110.968 157.655 110.968 158.03C110.968 158.133 110.955 158.199 110.914 158.229C110.872 158.258 110.804 158.273 110.695 158.273ZM142.359 157.625C143.159 156.941 143.563 155.969 143.563 154.71C143.563 153.385 143.125 152.391 142.256 151.722C141.387 151.052 140.258 150.713 138.869 150.713H134.217C134.053 150.713 133.971 150.816 133.971 151.015V163.507C133.971 163.72 134.073 163.823 134.272 163.823H136.044C136.283 163.823 136.406 163.706 136.406 163.47V158.825C136.406 158.707 136.461 158.648 136.571 158.648H139.143C140.484 158.648 141.551 158.302 142.359 157.625ZM140.443 153.105C140.86 153.444 141.066 153.959 141.066 154.651C141.066 155.336 140.867 155.859 140.47 156.219C140.067 156.58 139.526 156.757 138.835 156.757H136.618C136.543 156.757 136.488 156.735 136.454 156.683C136.42 156.639 136.406 156.565 136.406 156.455V152.885C136.406 152.701 136.495 152.605 136.68 152.605H138.733C139.458 152.605 140.026 152.774 140.443 153.105ZM154.052 163.389C154.708 163.794 155.461 164 156.302 164C157.144 164 157.897 163.794 158.553 163.382C159.21 162.969 159.723 162.395 160.086 161.666C160.455 160.938 160.64 160.106 160.64 159.178C160.64 158.236 160.455 157.39 160.093 156.654C159.737 155.91 159.224 155.329 158.567 154.909C157.91 154.489 157.165 154.283 156.316 154.283C155.488 154.283 154.743 154.489 154.086 154.902C153.429 155.314 152.916 155.895 152.539 156.639C152.17 157.39 151.985 158.244 151.985 159.193C151.985 160.128 152.163 160.952 152.526 161.689C152.888 162.417 153.395 162.984 154.052 163.389ZM157.917 161.578C157.555 162.145 157.021 162.425 156.316 162.425C155.632 162.425 155.098 162.145 154.715 161.578C154.339 161.011 154.154 160.202 154.154 159.142C154.154 158.067 154.339 157.242 154.715 156.668C155.098 156.094 155.632 155.8 156.316 155.8C157.007 155.8 157.541 156.094 157.91 156.668C158.287 157.242 158.471 158.067 158.471 159.142C158.471 160.202 158.287 161.011 157.917 161.578ZM181.932 154.563C181.891 154.497 181.823 154.46 181.734 154.46H180.687C180.612 154.46 180.543 154.482 180.482 154.534C180.42 154.578 180.379 154.637 180.358 154.71L178.764 160.341C178.73 160.474 178.696 160.54 178.648 160.54C178.607 160.54 178.566 160.481 178.532 160.364L176.91 154.725C176.855 154.548 176.753 154.46 176.595 154.46H175.412C175.261 154.46 175.159 154.541 175.104 154.71L173.51 160.341C173.476 160.474 173.435 160.54 173.38 160.54C173.359 160.54 173.339 160.518 173.318 160.481C173.305 160.452 173.291 160.408 173.277 160.364L171.635 154.725C171.628 154.644 171.594 154.578 171.532 154.534C171.471 154.482 171.396 154.46 171.307 154.46H169.719C169.637 154.46 169.583 154.482 169.535 154.534C169.494 154.578 169.473 154.637 169.473 154.71C169.473 154.769 169.473 154.806 169.487 154.828L172.114 163.522C172.155 163.72 172.285 163.823 172.49 163.823H173.708C173.804 163.823 173.879 163.801 173.927 163.764C173.975 163.72 174.016 163.654 174.037 163.558L175.61 158.067C175.644 157.956 175.685 157.905 175.727 157.905C175.768 157.905 175.809 157.956 175.843 158.067L177.437 163.522C177.499 163.72 177.629 163.823 177.827 163.823H178.997C179.168 163.823 179.277 163.735 179.325 163.558L181.953 154.813C181.98 154.718 181.98 154.637 181.932 154.563ZM193.331 161.166C193.119 160.783 193.016 160.349 193.016 159.863C193.016 159.679 193.078 159.583 193.194 159.583H199.009C199.119 159.569 199.187 159.539 199.222 159.495C199.256 159.451 199.269 159.362 199.269 159.245V159.178C199.269 158.163 199.098 157.287 198.756 156.55C198.407 155.814 197.922 155.255 197.292 154.865C196.663 154.475 195.937 154.283 195.116 154.283C194.316 154.283 193.591 154.489 192.934 154.902C192.277 155.314 191.757 155.895 191.374 156.654C190.991 157.404 190.799 158.273 190.799 159.267C190.799 160.187 190.984 161.004 191.36 161.718C191.73 162.439 192.25 162.999 192.906 163.396C193.57 163.801 194.316 164 195.151 164C196.026 164 196.765 163.838 197.361 163.514C197.956 163.19 198.503 162.646 198.996 161.88C199.037 161.806 199.057 161.755 199.057 161.718C199.057 161.652 199.023 161.6 198.941 161.563L197.942 161.085C197.874 161.048 197.826 161.033 197.792 161.033C197.764 161.033 197.716 161.063 197.662 161.122C197.333 161.556 196.984 161.88 196.622 162.086C196.252 162.292 195.848 162.395 195.397 162.395C194.959 162.395 194.555 162.285 194.193 162.064C193.823 161.851 193.536 161.549 193.331 161.166ZM196.909 158.273H193.05C193.036 157.559 193.235 156.955 193.632 156.462C194.029 155.976 194.555 155.733 195.198 155.733C195.616 155.733 195.972 155.844 196.273 156.065C196.574 156.293 196.806 156.58 196.957 156.933C197.107 157.287 197.189 157.655 197.189 158.03C197.189 158.133 197.169 158.199 197.128 158.229C197.094 158.258 197.018 158.273 196.909 158.273ZM208.663 163.507C208.663 163.72 208.759 163.823 208.957 163.823H210.422C210.668 163.823 210.798 163.706 210.798 163.47V158.067C210.798 157.78 210.901 157.507 211.099 157.242C211.304 156.977 211.557 156.764 211.872 156.595C212.187 156.433 212.481 156.352 212.768 156.352C213.138 156.352 213.48 156.389 213.788 156.477C213.925 156.499 214 156.425 214 156.263V154.563C214 154.379 213.802 154.283 213.405 154.283C212.994 154.283 212.563 154.423 212.125 154.695C211.687 154.975 211.291 155.358 210.928 155.859C210.873 155.917 210.832 155.947 210.798 155.947C210.743 155.947 210.716 155.895 210.716 155.8V154.725C210.716 154.548 210.641 154.46 210.483 154.46H208.889C208.739 154.46 208.663 154.563 208.663 154.762V163.507Z" fill="#155B89"/>
</svg>
